<?xml version="1.0" encoding="UTF-8" standalone="no"?>
<!DOCTYPE svg PUBLIC "-//W3C//DTD SVG 1.1//EN" "http://www.w3.org/Graphics/SVG/1.1/DTD/svg11.dtd">
<svg width="100%" height="100%" viewBox="0 0 1773 286" version="1.1" xmlns="http://www.w3.org/2000/svg" xmlns:xlink="http://www.w3.org/1999/xlink" xml:space="preserve" xmlns:serif="http://www.serif.com/" style="fill-rule:evenodd;clip-rule:evenodd;stroke-linejoin:round;stroke-miterlimit:1.41421;">
    <g transform="matrix(5.55556,0,0,5.55556,0,0)">
        <g transform="matrix(1.05345,0,0,0.75201,-87.4102,-5.52637)">
            <path d="M141.041,16.868L135.514,66.9L119.951,66.9C119.321,63.555 118.655,59.41 117.952,54.465C117.249,49.52 116.655,44.938 116.17,40.72C115.782,44.017 115.37,47.314 114.934,50.611C113.576,60.549 112.849,65.979 112.752,66.9L97.335,66.9L91.663,16.868L103.953,16.868L106.352,51.12C106.352,44.817 106.789,38.296 107.661,31.558C108.34,26.661 109.043,21.764 109.77,16.868L122.788,16.868L125.406,52.356L128.896,16.868L141.041,16.868Z" style="fill:rgb(51,51,51);fill-rule:nonzero;"/>
            <path d="M173.838,46.102C173.838,50.659 173.766,53.871 173.62,55.738C173.475,57.604 173.111,59.168 172.529,60.428C171.463,62.755 169.778,64.44 167.475,65.482C165.172,66.525 162.3,67.046 158.858,67.046C155.415,67.046 152.543,66.525 150.24,65.482C147.937,64.44 146.228,62.755 145.113,60.428C144.58,59.313 144.228,57.677 144.059,55.519C143.889,53.362 143.804,50.223 143.804,46.102L143.804,37.593C143.804,33.036 143.877,29.824 144.022,27.958C144.168,26.091 144.531,24.528 145.113,23.267C146.228,20.989 147.901,19.364 150.131,18.395C152.361,17.425 155.27,16.94 158.858,16.94C162.445,16.94 165.342,17.413 167.548,18.358C169.754,19.304 171.414,20.94 172.529,23.267C173.063,24.431 173.414,26.091 173.584,28.249C173.753,30.406 173.838,33.521 173.838,37.593L173.838,46.102ZM160.821,54.538L160.821,29.739C160.821,29.206 160.821,28.818 160.821,28.576C160.821,27.025 160.712,25.909 160.494,25.231C160.276,24.552 159.73,24.213 158.858,24.213C157.985,24.213 157.427,24.588 157.185,25.34C156.943,26.091 156.821,27.558 156.821,29.739L156.821,55.41C156.821,56.719 156.943,57.737 157.185,58.465C157.427,59.192 157.961,59.555 158.785,59.555C160.142,59.555 160.821,57.883 160.821,54.538Z" style="fill:rgb(51,51,51);fill-rule:nonzero;"/>
            <path d="M208.527,66.9L196.455,66.9L196.455,48.793C196.455,46.999 196.212,45.811 195.728,45.229C195.243,44.647 194.176,44.357 192.528,44.357L192.528,66.9L179.511,66.9L179.511,16.868L188.746,16.868C196.406,16.868 201.279,17.377 203.363,18.395C206.806,20.092 208.527,24.116 208.527,30.467C208.527,34.248 208.139,36.769 207.363,38.03C206.442,39.533 204.454,40.454 201.4,40.793C204.503,41.617 206.515,42.854 207.436,44.502C208.163,45.811 208.527,48.284 208.527,51.92L208.527,66.9ZM196.455,32.067L196.455,29.303C196.455,27.994 196.285,27.073 195.946,26.54C195.461,25.812 194.516,25.449 193.11,25.449L192.528,25.449L192.528,36.503C194.225,36.503 195.303,36.224 195.764,35.666C196.225,35.109 196.455,33.909 196.455,32.067Z" style="fill:rgb(51,51,51);fill-rule:nonzero;"/>
            <path d="M244.524,66.9L231.07,66.9L225.834,45.447L225.834,66.9L212.817,66.9L212.817,16.868L225.834,16.868L225.834,36.284L231.579,16.868L243.797,16.868L236.306,39.411L244.524,66.9Z" style="fill:rgb(51,51,51);fill-rule:nonzero;"/>
            <path d="M276.376,48.793L276.376,51.192C276.376,53.907 276.182,56.041 275.794,57.592C274.437,63.943 269.734,67.118 261.686,67.118C258.777,67.118 256.45,66.925 254.705,66.537C252.96,66.149 251.408,65.276 250.051,63.919C248.402,62.319 247.372,60.477 246.96,58.392C246.548,56.307 246.342,53.204 246.342,49.083L246.342,30.976C246.342,26.031 247.639,22.407 250.233,20.104C252.826,17.801 256.596,16.65 261.541,16.65C264.498,16.65 266.849,16.904 268.595,17.413C270.34,17.922 271.867,18.916 273.176,20.395C274.485,21.873 275.382,23.825 275.867,26.249C276.206,27.994 276.376,30.539 276.376,33.885L276.376,36.503L264.013,36.503L264.013,29.958C264.013,29.424 264.013,29.012 264.013,28.721C264.013,27.267 263.989,26.418 263.941,26.176C263.698,24.964 262.995,24.358 261.832,24.358C260.183,24.358 259.359,25.4 259.359,27.485L259.359,55.628C259.359,58.198 260.159,59.483 261.759,59.483C262.777,59.483 263.407,59.071 263.65,58.246C263.892,57.422 264.013,55.75 264.013,53.229L264.013,46.902L276.376,46.902L276.376,48.793Z" style="fill:rgb(51,51,51);fill-rule:nonzero;"/>
            <path d="M310.337,67.046L297.247,67.046L297.247,46.029L293.466,46.029L293.466,67.046L280.376,67.046L280.376,17.013L293.466,17.013L293.466,34.903L297.247,34.903L297.247,17.013L310.337,17.013L310.337,67.046Z" style="fill:rgb(51,51,51);fill-rule:nonzero;"/>
            <path d="M346.698,66.9L333.287,66.9L332.626,57.883L327.863,57.883L327.144,66.9L313.828,66.9L320.445,16.868L339.28,16.868L346.698,66.9ZM332.372,48.938C331.936,45.253 331.499,41.145 331.063,36.612C330.627,32.079 330.408,29.206 330.408,27.994C330.069,30.321 329.584,34.175 328.954,39.557C328.518,43.048 328.154,46.175 327.863,48.938L332.372,48.938Z" style="fill:rgb(51,51,51);fill-rule:nonzero;"/>
            <path d="M376.441,26.831L368.805,26.831L368.805,66.9L355.788,66.9L355.788,26.831L348.007,26.831L348.007,16.868L376.441,16.868L376.441,26.831Z" style="fill:rgb(51,51,51);fill-rule:nonzero;"/>
        </g>
    </g>
</svg>
